<?xml version="1.0" encoding="UTF-8" standalone="no"?>
<svg xmlns="http://www.w3.org/2000/svg"
     xmlns:xlink="http://www.w3.org/1999/xlink"
     width="576px" height="433px" viewBox="0 0 576 433">
<title>glps_renderer figure</title>
<desc>
Creator: GL2PS 1.3.8, (C) 1999-2012 C. Geuzaine
For: Octave
CreationDate: Tue Aug 21 19:41:25 2018
</desc>
<defs>
</defs>
<g shape-rendering="crispEdges">
<polygon fill="#ffffff" points="140.995,177.848 138.372,218.694 138.372,198.186"/>
<polygon fill="#ffffff" points="138.372,218.694 140.995,177.848 140.995,239.032"/>
<polygon fill="#ffffff" points="140.995,239.032 140.995,177.848 146.197,258.869"/>
<polygon fill="#ffffff" points="146.197,258.869 140.995,177.848 146.197,158.011"/>
<polygon fill="#ffffff" points="146.197,258.869 146.197,158.011 153.892,277.877"/>
<polygon fill="#ffffff" points="153.892,277.877 146.197,158.011 153.892,139.003"/>
<polygon fill="#ffffff" points="153.892,277.877 153.892,139.003 163.955,295.745"/>
<polygon fill="#ffffff" points="163.955,295.745 153.892,139.003 163.955,121.135"/>
<polygon fill="#ffffff" points="163.955,295.745 163.955,121.135 176.221,312.18"/>
<polygon fill="#ffffff" points="176.221,312.18 163.955,121.135 176.221,104.7"/>
<polygon fill="#ffffff" points="176.221,312.18 176.221,104.7 190.487,326.911"/>
<polygon fill="#ffffff" points="190.487,326.911 176.221,104.7 190.487,89.9686"/>
<polygon fill="#ffffff" points="190.487,326.911 190.487,89.9686 206.521,339.697"/>
<polygon fill="#ffffff" points="206.521,339.697 190.487,89.9686 206.521,77.1826"/>
<polygon fill="#ffffff" points="206.521,339.697 206.521,77.1826 224.057,350.328"/>
<polygon fill="#ffffff" points="224.057,350.328 206.521,77.1826 224.057,66.5519"/>
<polygon fill="#ffffff" points="224.057,350.328 224.057,66.5519 242.809,358.629"/>
<polygon fill="#ffffff" points="242.809,358.629 224.057,66.5519 242.809,58.2509"/>
<polygon fill="#ffffff" points="242.809,358.629 242.809,58.2509 262.469,364.464"/>
<polygon fill="#ffffff" points="262.469,364.464 242.809,58.2509 262.469,52.4161"/>
<polygon fill="#ffffff" points="262.469,364.464 262.469,52.4161 282.713,367.737"/>
<polygon fill="#ffffff" points="282.713,367.737 262.469,52.4161 282.713,49.1431"/>
<polygon fill="#ffffff" points="282.713,367.737 282.713,49.1431 303.209,368.394"/>
<polygon fill="#ffffff" points="303.209,368.394 282.713,49.1431 303.209,48.4859"/>
<polygon fill="#ffffff" points="303.209,368.394 303.209,48.4859 323.622,366.425"/>
<polygon fill="#ffffff" points="323.622,366.425 303.209,48.4859 323.622,50.455"/>
<polygon fill="#ffffff" points="323.622,366.425 323.622,50.455 343.615,361.862"/>
<polygon fill="#ffffff" points="343.615,361.862 323.622,50.455 343.615,55.0183"/>
<polygon fill="#ffffff" points="343.615,361.862 343.615,55.0183 362.86,354.779"/>
<polygon fill="#ffffff" points="362.86,354.779 343.615,55.0183 362.86,62.1007"/>
<polygon fill="#ffffff" points="362.86,354.779 362.86,62.1007 381.042,345.294"/>
<polygon fill="#ffffff" points="381.042,345.294 362.86,62.1007 381.042,71.5861"/>
<polygon fill="#ffffff" points="381.042,345.294 381.042,71.5861 397.861,333.561"/>
<polygon fill="#ffffff" points="397.861,333.561 381.042,71.5861 397.861,83.3185"/>
<polygon fill="#ffffff" points="397.861,333.561 397.861,83.3185 413.042,319.775"/>
<polygon fill="#ffffff" points="413.042,319.775 397.861,83.3185 413.042,97.1055"/>
<polygon fill="#ffffff" points="413.042,319.775 413.042,97.1055 426.335,304.159"/>
<polygon fill="#ffffff" points="426.335,304.159 413.042,97.1055 426.335,112.721"/>
<polygon fill="#ffffff" points="426.335,304.159 426.335,112.721 437.523,286.973"/>
<polygon fill="#ffffff" points="437.523,286.973 426.335,112.721 437.523,129.907"/>
<polygon fill="#ffffff" points="437.523,286.973 437.523,129.907 446.42,268.496"/>
<polygon fill="#ffffff" points="446.42,268.496 437.523,129.907 446.42,148.384"/>
<polygon fill="#ffffff" points="446.42,268.496 446.42,148.384 452.882,249.034"/>
<polygon fill="#ffffff" points="452.882,249.034 446.42,148.384 452.882,167.846"/>
<polygon fill="#ffffff" points="452.882,249.034 452.882,167.846 456.802,228.905"/>
<polygon fill="#ffffff" points="456.802,228.905 452.882,167.846 456.802,187.975"/>
<polygon fill="#ffffff" points="456.802,228.905 456.802,187.975 458.116,208.44"/>
<polyline fill="none" stroke="#000000" stroke-width="0.5" points="458.116,208.44 456.802,228.905 452.882,249.034 446.42,268.496 437.523,286.973 426.335,304.159 413.042,319.775 397.861,333.561 381.042,345.294 362.86,354.779 343.615,361.862 323.622,366.425 303.209,368.394 282.713,367.737 262.469,364.464 242.809,358.629 224.057,350.328 206.521,339.697 190.487,326.911 176.221,312.18 163.955,295.745 153.892,277.877 146.197,258.869 140.995,239.032 138.372,218.694 138.372,198.186 140.995,177.848 146.197,158.011 153.892,139.003 163.955,121.135 176.221,104.7 190.487,89.9686 206.521,77.1826 224.057,66.5519 242.809,58.2509 262.469,52.4161 282.713,49.1431 303.209,48.4859 323.622,50.455 343.615,55.0183 362.86,62.1007 381.042,71.5861 397.861,83.3185 413.042,97.1055 426.335,112.721 437.523,129.907 446.42,148.384 452.882,167.846 456.802,187.975 458.116,208.44 458.116,208.44"/>
<polyline fill="none" stroke="#000000" stroke-width="0.5" stroke-dasharray="0,3,1,3,1,3,1,3,1,0" points="351.425,208.44 350.987,201.618 349.681,194.909 347.527,188.421 344.561,182.262 340.832,176.534 336.401,171.328 331.34,166.733 325.734,162.822 319.673,159.66 313.258,157.299 306.594,155.778 299.79,155.122 292.958,155.341 286.21,156.432 279.656,158.377 273.406,161.144 267.56,164.688 262.216,168.95 257.46,173.86 253.372,179.338 250.017,185.294 247.452,191.63 245.718,198.243 244.844,205.022 244.844,211.858 245.718,218.637 247.452,225.25 250.017,231.586 253.372,237.542 257.46,243.02 262.216,247.93 267.56,252.192 273.406,255.736 279.656,258.503 286.21,260.448 292.958,261.539 299.79,261.758 306.594,261.102 313.258,259.581 319.673,257.22 325.734,254.058 331.34,250.147 336.401,245.551 340.832,240.346 344.561,234.618 347.527,228.459 349.681,221.971 350.987,215.262 351.425,208.44"/>
<polyline fill="none" stroke="#000000" stroke-width="0.5" stroke-dasharray="0,3,1,3,1,3,1,3,1,0" points="404.771,208.44 403.895,194.797 401.282,181.377 396.974,168.402 391.042,156.085 383.584,144.627 374.721,134.217 364.601,125.026 353.388,117.204 341.267,110.88 328.436,106.159 315.108,103.117 301.5,101.804 287.835,102.242 274.339,104.424 261.233,108.314 248.731,113.848 237.04,120.935 226.352,129.459 216.841,139.28 208.664,150.236 201.955,162.149 196.824,174.821 193.357,188.045 191.608,201.604 191.608,215.276 193.357,228.835 196.824,242.059 201.955,254.731 208.664,266.644 216.841,277.6 226.352,287.421 237.04,295.945 248.731,303.032 261.233,308.566 274.339,312.456 287.835,314.638 301.5,315.076 315.108,313.763 328.436,310.721 341.267,306 353.388,299.676 364.601,291.854 374.721,282.663 383.584,272.253 391.042,260.795 396.974,248.478 401.282,235.503 403.895,222.083 404.771,208.44"/>
<polyline fill="none" stroke="#000000" stroke-width="0.5" points="458.116,208.44 456.802,187.975 452.882,167.846 446.42,148.384 437.523,129.907 426.335,112.721 413.042,97.1055 397.861,83.3185 381.042,71.5861 362.86,62.1007 343.615,55.0183 323.622,50.455 303.209,48.4859 282.713,49.1431 262.469,52.4161 242.809,58.2509 224.057,66.5519 206.521,77.1826 190.487,89.9686 176.221,104.7 163.955,121.135 153.892,139.003 146.197,158.011 140.995,177.848 138.372,198.186 138.372,218.694 140.995,239.032 146.197,258.869 153.892,277.877 163.955,295.745 176.221,312.18 190.487,326.911 206.521,339.697 224.057,350.328 242.809,358.629 262.469,364.464 282.713,367.737 303.209,368.394 323.622,366.425 343.615,361.862 362.86,354.779 381.042,345.294 397.861,333.561 413.042,319.775 426.335,304.159 437.523,286.973 446.42,268.496 452.882,249.034 456.802,228.905 458.116,208.44"/>
<text fill="#000000" x="311.346" y="156.77" font-size="10" text-anchor="start" baseline-shift="0" font-family="Helvetica">2</text>
<text fill="#000000" x="324.613" y="105.101" font-size="10" text-anchor="start" baseline-shift="0" font-family="Helvetica">4</text>
<text fill="#000000" x="337.879" y="53.4315" font-size="10" text-anchor="start" baseline-shift="0" font-family="Helvetica">6</text>
<polyline fill="none" stroke="#000000" stroke-width="0.5" stroke-dasharray="0,3,1,3,1,3,1,3,1,0" points="298.08,208.44 458.116,208.44"/>
<polyline fill="none" stroke="#000000" stroke-width="0.5" stroke-dasharray="0,3,1,3,1,3,1,3,1,0" points="298.08,208.44 436.676,128.422"/>
<polyline fill="none" stroke="#000000" stroke-width="0.5" stroke-dasharray="0,3,1,3,1,3,1,3,1,0" points="298.08,208.44 378.098,69.8445"/>
<polyline fill="none" stroke="#000000" stroke-width="0.5" stroke-dasharray="0,3,1,3,1,3,1,3,1,0" points="298.08,208.44 298.08,48.4036"/>
<polyline fill="none" stroke="#000000" stroke-width="0.5" stroke-dasharray="0,3,1,3,1,3,1,3,1,0" points="298.08,208.44 218.062,69.8445"/>
<polyline fill="none" stroke="#000000" stroke-width="0.5" stroke-dasharray="0,3,1,3,1,3,1,3,1,0" points="298.08,208.44 159.484,128.422"/>
<polyline fill="none" stroke="#000000" stroke-width="0.5" stroke-dasharray="0,3,1,3,1,3,1,3,1,0" points="298.08,208.44 138.044,208.44"/>
<polyline fill="none" stroke="#000000" stroke-width="0.5" stroke-dasharray="0,3,1,3,1,3,1,3,1,0" points="298.08,208.44 159.484,288.458"/>
<polyline fill="none" stroke="#000000" stroke-width="0.5" stroke-dasharray="0,3,1,3,1,3,1,3,1,0" points="298.08,208.44 218.062,347.036"/>
<polyline fill="none" stroke="#000000" stroke-width="0.5" stroke-dasharray="0,3,1,3,1,3,1,3,1,0" points="298.08,208.44 298.08,368.476"/>
<polyline fill="none" stroke="#000000" stroke-width="0.5" stroke-dasharray="0,3,1,3,1,3,1,3,1,0" points="298.08,208.44 378.098,347.036"/>
<polyline fill="none" stroke="#000000" stroke-width="0.5" stroke-dasharray="0,3,1,3,1,3,1,3,1,0" points="298.08,208.44 436.676,288.458"/>
<text fill="#000000" x="470.919" y="208.44" font-size="10" text-anchor="middle" baseline-shift="-5" font-family="Helvetica">0</text>
<text fill="#000000" x="447.763" y="122.02" font-size="10" text-anchor="middle" baseline-shift="-5" font-family="Helvetica">30</text>
<text fill="#000000" x="384.5" y="58.7568" font-size="10" text-anchor="middle" baseline-shift="-5" font-family="Helvetica">60</text>
<text fill="#000000" x="298.08" y="35.6007" font-size="10" text-anchor="middle" baseline-shift="-5" font-family="Helvetica">90</text>
<text fill="#000000" x="211.66" y="58.7568" font-size="10" text-anchor="middle" baseline-shift="-5" font-family="Helvetica">120</text>
<text fill="#000000" x="148.397" y="122.02" font-size="10" text-anchor="middle" baseline-shift="-5" font-family="Helvetica">150</text>
<text fill="#000000" x="125.241" y="208.44" font-size="10" text-anchor="middle" baseline-shift="-5" font-family="Helvetica">180</text>
<text fill="#000000" x="148.397" y="294.86" font-size="10" text-anchor="middle" baseline-shift="-5" font-family="Helvetica">210</text>
<text fill="#000000" x="211.66" y="358.123" font-size="10" text-anchor="middle" baseline-shift="-5" font-family="Helvetica">240</text>
<text fill="#000000" x="298.08" y="381.279" font-size="10" text-anchor="middle" baseline-shift="-5" font-family="Helvetica">270</text>
<text fill="#000000" x="384.5" y="358.123" font-size="10" text-anchor="middle" baseline-shift="-5" font-family="Helvetica">300</text>
<text fill="#000000" x="447.763" y="294.86" font-size="10" text-anchor="middle" baseline-shift="-5" font-family="Helvetica">330</text>
<polyline fill="none" stroke="#0000ff" stroke-width="0.5" points="298.08,208.44 298.086,208.44 298.126,208.439 298.233,208.435 298.442,208.426 298.783,208.405 299.286,208.368 299.978,208.307 300.886,208.215 302.03,208.084 303.43,207.903 305.102,207.664 307.057,207.358 309.303,206.973 311.846,206.5 314.684,205.931 317.813,205.255 321.226,204.467 324.911,203.558 328.85,202.522 333.025,201.356 337.413,200.056 341.986,198.622 346.715,197.052 351.568,195.351 356.509,193.521 361.504,191.568 366.513,189.501 371.498,187.328 376.418,185.063 381.235,182.717 385.907,180.306 390.398,177.847 394.667,175.357 398.68,172.854 402.402,170.36 405.801,167.894 408.848,165.477 411.517,163.132 413.784,160.879 415.632,158.74 417.044,156.735 418.008,154.883 418.518,153.205 418.569,151.716 418.164,150.433 417.306,149.37 416.004,148.539 414.271,147.949 412.125,147.61 409.584,147.525 406.673,147.697 403.418,148.128 399.847,148.813 395.993,149.748 391.889,150.925 387.57,152.334 383.072,153.963 378.432,155.796 373.688,157.816 368.877,160.005 364.036,162.342 359.202,164.804 354.409,167.37 349.69,170.014 345.078,172.712 340.601,175.439 336.286,178.171 332.157,180.883 328.236,183.551 324.54,186.153 321.084,188.667 317.879,191.075 314.934,193.357 312.253,195.498 309.838,197.486 307.686,199.31 305.793,200.961 304.151,202.434 302.749,203.728 301.573,204.844 300.608,205.784 299.837,206.557 299.239,207.173 298.795,207.643 298.481,207.983 298.277,208.212 298.157,208.349 298.1,208.416 298.082,208.438 298.08,208.44 298.073,208.449 298.041,208.491 297.964,208.595 297.826,208.788 297.609,209.098 297.302,209.551 296.892,210.173 296.371,210.988 295.731,212.019 294.97,213.284 294.084,214.802 293.076,216.587 291.948,218.651 290.705,221.003 289.357,223.648 287.911,226.586 286.38,229.816 284.778,233.331 283.119,237.122 281.419,241.175 279.696,245.472 277.966,249.994 276.25,254.715 274.564,259.609 272.927,264.645 271.357,269.79 269.872,275.01 268.488,280.267 267.221,285.523 266.084,290.738 265.091,295.871 264.253,300.882 263.578,305.73 263.074,310.375 262.746,314.779 262.599,318.903 262.631,322.713 262.844,326.176 263.234,329.26 263.795,331.938 264.521,334.187 265.404,335.985 266.433,337.317 267.596,338.17 268.879,338.535 270.27,338.409 271.752,337.792 273.309,336.689 274.926,335.109 276.585,333.065 278.27,330.577 279.964,327.664 281.651,324.352 283.317,320.669 284.945,316.648 286.523,312.323 288.038,307.73 289.479,302.908 290.836,297.898 292.102,292.74 293.269,287.477 294.333,282.15 295.29,276.802 296.138,271.473 296.879,266.202 297.512,261.028 298.042,255.986 298.473,251.11 298.81,246.43 299.06,241.974 299.23,237.766 299.33,233.826 299.368,230.17 299.353,226.811 299.296,223.757 299.204,221.012 299.089,218.577 298.958,216.447 298.819,214.614 298.681,213.067 298.549,211.789 298.429,210.762 298.325,209.964 298.239,209.37 298.173,208.953 298.127,208.683 298.098,208.529 298.084,208.46 298.08,208.441 298.08,208.439 298.076,208.422 298.059,208.356 298.019,208.209 297.945,207.95 297.825,207.552 297.647,206.986 297.398,206.23 297.065,205.262 296.633,204.063 296.091,202.618 295.426,200.917 294.625,198.952 293.678,196.718 292.576,194.216 291.309,191.45 289.872,188.427 288.259,185.159 286.466,181.66 284.493,177.951 282.342,174.052 280.015,169.987 277.518,165.786 274.859,161.477 272.049,157.092 269.1,152.666 266.027,148.232 262.848,143.827 259.582,139.486 256.249,135.246 252.872,131.142 249.476,127.209 246.085,123.481 242.725,119.991 239.424,116.767 236.208,113.839 233.105,111.231 230.142,108.965 227.344,107.061 224.739,105.535 222.348,104.398 220.197,103.66 218.304,103.326 216.69,103.398 215.371,103.871 214.36,104.742 213.669,106 213.308,107.632 213.279,109.622 213.587,111.95 214.231,114.595 215.205,117.532 216.503,120.733 218.115,124.172 220.026,127.816 222.221,131.636 224.681,135.597 227.383,139.669 230.305,143.817 233.42,148.01 236.7,152.215 240.118,156.402 243.642,160.541 247.242,164.603 250.888,168.562 254.548,172.395 258.191,176.078 261.789,179.594 265.312,182.925 268.734,186.057 272.03,188.98 275.176,191.684 278.151,194.165 280.94,196.42 283.525,198.448 285.896,200.254 288.045,201.843 289.966,203.221 291.658,204.4 293.123,205.39 294.367,206.206 295.398,206.863 296.229,207.376 296.875,207.763 297.355,208.042 297.689,208.231 297.902,208.347 298.02,208.409 298.069,208.435 298.08,208.44 298.082,208.441 298.106,208.452 298.185,208.487 298.348,208.557 298.626,208.672 299.05,208.84 299.647,209.069 300.444,209.361 301.465,209.72 302.732,210.147 304.265,210.639 306.079,211.194 308.186,211.807 310.596,212.471 313.314,213.179 316.34,213.921 319.673,214.686 323.305,215.464 327.226,216.243 331.42,217.01 335.869,217.752 340.552,218.456 345.44,219.11 350.507,219.702 355.719,220.22 361.042,220.653 366.438,220.992 371.869,221.227 377.294,221.353 382.672,221.363 387.961,221.252 393.118,221.019 398.101,220.662 402.869,220.182 407.383,219.583 411.604,218.867 415.495,218.042 419.024,217.114 422.16,216.092 424.875,214.987 427.145,213.811 428.95,212.576 430.274,211.295 431.106,209.982 431.437,208.652 431.266,207.32 430.593,206.001 429.424,204.708 427.771,203.456 425.647,202.26 423.072,201.131 420.067,200.082 416.66,199.123 412.881,198.264 408.761,197.513 404.337,196.876 399.645,196.357 394.726,195.961 389.62,195.689 384.368,195.539 379.014,195.511 373.6,195.6 368.166,195.802 362.754,196.109 357.404,196.513 352.153,197.005 347.036,197.574 342.088,198.21 337.337,198.899 332.811,199.631 328.533,200.391 324.523,201.167 320.798,201.947 317.369,202.717 314.244,203.468 311.428,204.188 308.92,204.867 306.718,205.497 304.812,206.071 303.191,206.584 301.841,207.031 300.744,207.412 299.878,207.725 299.22,207.974 298.744,208.161 298.422,208.292 298.226,208.375 298.124,208.42 298.086,208.437 298.08,208.44 298.075,208.442 298.042,208.459 297.949,208.508 297.769,208.605 297.476,208.769 297.045,209.017 296.454,209.368 295.684,209.839 294.718,210.448 293.543,211.212 292.149,212.145 290.53,213.262 288.682,214.576 286.605,216.097 284.304,217.832 281.786,219.79 279.061,221.972 276.143,224.381 273.049,227.015 269.799,229.868 266.415,232.935 262.921,236.204 259.344,239.663 255.712,243.295 252.054,247.082 248.4,251.004 244.782,255.036 241.23,259.153 237.776,263.328 234.448,267.53 231.277,271.73 228.291,275.896 225.516,279.996 222.977,283.996 220.696,287.865 218.692,291.568 216.983,295.076 215.584,298.356 214.505,301.38 213.756,304.121 213.341,306.553 213.262,308.652 213.518,310.4 214.105,311.779 215.015,312.774 216.237,313.375 217.759,313.575 219.565,313.37 221.636,312.76 223.953,311.75 226.492,310.347 229.231,308.562 232.145,306.409 235.206,303.908 238.389,301.079 241.666,297.946 245.01,294.538 248.394,290.882 251.791,287.011 255.177,282.958 258.526,278.758 261.816,274.445 265.025,270.056 268.134,265.627 271.124,261.195 273.979,256.793 276.688,252.456 279.237,248.217 281.619,244.106 283.827,240.152 285.857,236.379 287.707,232.812 289.377,229.468 290.87,226.366 292.191,223.517 293.345,220.93 294.34,218.611 295.186,216.56 295.893,214.775 296.473,213.25 296.938,211.975 297.302,210.934 297.576,210.113 297.776,209.489 297.912,209.04 297.999,208.74 298.049,208.561 298.072,208.472 298.079,208.443 298.08,208.44 298.082,208.43 298.092,208.38 298.116,208.257 298.156,208.028 298.216,207.66 298.295,207.126 298.394,206.396 298.509,205.444 298.638,204.249 298.775,202.789 298.914,201.049 299.048,199.014 299.17,196.677 299.27,194.031 299.339,191.075 299.369,187.813 299.348,184.25 299.269,180.399 299.122,176.274 298.898,171.895 298.59,167.283 298.19,162.467 297.692,157.474 297.092,152.339 296.386,147.094 295.572,141.78 294.649,136.433 293.619,131.095 292.485,125.807 291.25,120.611 289.921,115.549 288.505,110.663 287.013,105.993 285.454,101.578 283.84,97.4565 282.185,93.6627 280.503,90.2294 278.809,87.1864 277.12,84.5599 275.451,82.3727 273.819,80.6436 272.241,79.3874 270.733,78.6147 269.311,78.3318 267.992,78.5406 266.789,79.2387 265.716,80.419 264.786,82.0704 264.009,84.1778 263.394,86.7218 262.949,89.6795 262.68,93.0246 262.589,96.7274 262.68,100.756 262.95,105.074 263.399,109.647 264.02,114.435 264.807,119.398 265.752,124.497 266.844,129.69 268.071,134.937 269.419,140.197 270.874,145.433 272.419,150.606 274.036,155.681 275.708,160.623 277.417,165.403 279.145,169.991 280.872,174.362 282.581,178.495 284.255,182.371 285.877,185.975 287.432,189.297 288.906,192.328 290.287,195.066 291.564,197.511 292.729,199.666 293.776,201.539 294.701,203.141 295.502,204.485 296.18,205.588 296.738,206.469 297.183,207.15 297.522,207.654 297.766,208.007 297.928,208.235 298.022,208.364 298.067,208.423 298.079,208.439 298.08,208.44 298.091,208.453 298.133,208.504 298.23,208.616 298.405,208.813 298.682,209.116 299.082,209.542 299.628,210.11 300.342,210.832 301.243,211.718 302.35,212.777 303.679,214.014 305.243,215.431 307.056,217.025 309.124,218.795 311.455,220.731 314.052,222.825 316.913,225.064 320.035,227.433 323.413,229.916 327.034,232.492 330.885,235.141 334.95,237.842 339.208,240.57 343.636,243.301 348.208,246.011 352.896,248.675 357.669,251.268 362.494,253.766 367.337,256.146 372.161,258.384 376.931,260.46 381.608,262.355 386.155,264.05 390.535,265.531 394.712,266.783 398.649,267.796 402.313,268.562 405.672,269.073 408.696,269.328 411.357,269.325 413.632,269.066 415.498,268.556 416.939,267.801 417.939,266.81 418.49,265.596 418.584,264.171 418.22,262.551 417.4,260.753 416.129,258.794 414.419,256.696 412.283,254.477 409.74,252.159 406.811,249.763 403.521,247.31 399.899,244.822 395.975,242.32 391.783,239.824 387.359,237.353 382.741,234.924 377.966,232.556 373.074,230.264 368.105,228.06 363.1,225.959 358.096,223.968 353.134,222.099 348.249,220.355 343.477,218.744 338.851,217.266 334.401,215.923 330.156,214.715 326.139,213.638 322.371,212.689 318.87,211.863 315.649,211.153 312.718,210.55 310.081,210.048 307.74,209.636 305.693,209.305 303.932,209.046 302.447,208.848 301.224,208.702 300.243,208.599 299.485,208.529 298.924,208.485 298.535,208.46 298.287,208.447 298.151,208.442 298.093,208.44 298.08,208.44"/>
<polygon fill="#ffffff" points="458.116,208.44 456.802,187.975 458.116,208.44"/>
</g>
</svg>
